<svg width="33" height="34" viewBox="0 0 33 34" fill="none" xmlns="http://www.w3.org/2000/svg">
<g opacity="0.5">
<path d="M16.5 33.5C25.6127 33.5 33 26.1127 33 17C33 7.8873 25.6127 0.5 16.5 0.5C7.3873 0.5 0 7.8873 0 17C0 26.1127 7.3873 33.5 16.5 33.5Z" fill="#A5B4C4"/>
<path d="M12.7457 26.5333C12.3644 26.416 12.027 26.2253 11.8364 25.8587C11.587 25.404 11.631 24.92 11.983 24.5387C12.2177 24.2893 12.4524 24.0547 12.7017 23.8053C13.5524 22.9547 14.403 22.104 15.2537 21.2533C15.3564 21.1507 15.4444 21.048 15.5764 20.916C15.3124 20.872 15.0924 20.8427 14.8577 20.8133C13.9044 20.6667 12.9804 20.388 12.159 19.86C11.807 19.64 11.455 19.376 11.1617 19.0973C10.6777 18.628 10.6777 18.0413 11.103 17.5133C11.4697 17.0587 12.0564 16.956 12.6137 17.2787C13.0244 17.5133 13.4204 17.7773 13.8457 17.968C16.031 18.9067 18.143 18.7453 20.1524 17.44C20.431 17.2493 20.7244 17.1027 21.0764 17.1027C21.5457 17.1027 21.927 17.3813 22.1324 17.88C22.323 18.3347 22.2497 18.7307 21.8977 19.068C21.0617 19.904 20.0497 20.4027 18.9057 20.6667C18.451 20.7693 17.9817 20.8427 17.4977 20.9307C17.6004 21.048 17.703 21.1507 17.8057 21.2533C18.847 22.2947 19.8884 23.3507 20.9297 24.392C21.267 24.7293 21.487 25.1107 21.3404 25.5947C21.1937 26.0933 20.8417 26.416 20.3284 26.5187C20.3137 26.5187 20.299 26.5333 20.2844 26.548C20.1964 26.548 20.1084 26.548 20.0204 26.548C19.639 26.46 19.3604 26.2107 19.0964 25.9467C18.3484 25.184 17.6004 24.436 16.8524 23.688C16.5737 23.4093 16.5004 23.4093 16.2217 23.688C16.1924 23.7173 16.1484 23.7613 16.119 23.7907C15.415 24.5093 14.6964 25.2133 13.9924 25.932C13.743 26.1813 13.479 26.4307 13.1417 26.548C12.995 26.5333 12.863 26.5333 12.7457 26.5333Z" fill="white"/>
<path d="M21.2665 11.676C21.0318 9.75467 19.6238 8.12667 17.7611 7.64267C17.4678 7.56934 17.1745 7.52534 16.8665 7.46667C16.6171 7.46667 16.3678 7.46667 16.1185 7.46667C16.0598 7.48134 16.0011 7.49601 15.9425 7.49601C15.1651 7.58401 14.4465 7.84801 13.8011 8.28801C11.6451 9.76934 11.0438 12.5707 12.3931 14.8147C13.6105 16.824 16.2065 17.66 18.3625 16.7213C20.4011 15.856 21.5451 13.8613 21.2665 11.676ZM16.5291 14.6533C15.2091 14.668 14.1531 13.6267 14.1385 12.3067C14.1238 10.9867 15.1798 9.93068 16.4851 9.93068C17.7905 9.91601 18.8318 10.972 18.8465 12.2773C18.8611 13.5827 17.8345 14.6387 16.5291 14.6533Z" fill="white"/>
</g>
</svg>
