<svg width="33" height="34" viewBox="0 0 33 34" fill="none" xmlns="http://www.w3.org/2000/svg">
<g opacity="0.5">
<path d="M16.5 33.5001C25.6127 33.5001 33 26.1127 33 17C33 7.8873 25.6127 0.5 16.5 0.5C7.3873 0.5 0 7.8873 0 17C0 26.1127 7.3873 33.5001 16.5 33.5001Z" fill="#A5B4C4"/>
<path d="M24.6633 9.8789L21.7107 24.8158C21.7107 24.8158 21.3633 25.8579 20.1475 25.3368L13.3739 20.1263L10.9422 18.9105L6.77377 17.521C6.77377 17.521 6.0791 17.3473 6.0791 16.8263C6.0791 16.3052 6.77377 16.1315 6.77377 16.1315L23.2738 9.70525C23.2738 9.53157 24.6633 9.01048 24.6633 9.8789Z" fill="white"/>
<path d="M12.8537 24.6421C12.8537 24.6421 12.68 24.6421 12.3326 23.7736C12.1589 22.9052 10.7695 18.9105 10.7695 18.9105L20.8432 12.4842C20.8432 12.4842 21.3642 12.1368 21.3642 12.4842C21.3642 12.4842 21.538 12.4842 21.1906 12.8315C20.8432 13.1789 13.3748 19.9526 13.3748 19.9526" fill="#A5B4C4"/>
</g>
</svg>
