<svg width="33" height="34" viewBox="0 0 33 34" fill="none" xmlns="http://www.w3.org/2000/svg">
<g opacity="0.5">
<path d="M16.5 33.5C25.6127 33.5 33 26.1127 33 17C33 7.8873 25.6127 0.5 16.5 0.5C7.3873 0.5 0 7.8873 0 17C0 26.1127 7.3873 33.5 16.5 33.5Z" fill="#A5B4C4"/>
<path d="M17.321 22.7199C11.0583 22.7199 7.47967 18.4226 7.33301 11.2799H10.4717C10.5743 16.5306 12.8917 18.7453 14.725 19.1999V11.2799H17.673V15.7973C19.477 15.6066 21.3837 13.5386 22.029 11.2799H24.977C24.4783 14.0813 22.425 16.1346 20.9583 16.9853C22.425 17.6746 24.7717 19.4639 25.6663 22.7199H22.4103C21.7063 20.5493 19.9757 18.8626 17.673 18.6279V22.7199H17.321Z" fill="white"/>
</g>
</svg>
